<svg xmlns="http://www.w3.org/2000/svg" viewBox="0 0 2048 2048" width="800" height="800">
  <rect width="2048" height="2048" fill="#000000"/>
  <g transform="translate(0,2048) scale(0.1,-0.1)" fill="#ffffff" stroke="none">
    <path d="M5368 14004 c-5 -4 -8 -749 -8 -1656 l0 -1648 578 0 c598 0 643 3
817 45 194 47 414 153 589 283 135 102 184 148 292 278 378 458 484 1047 285
1592 -36 100 -146 312 -195 379 -124 168 -178 228 -292 324 -45 37 -126 97
-182 133 -97 64 -296 166 -324 166 -8 0 -18 4 -23 8 -15 13 -114 42 -243 69
-116 25 -123 26 -702 30 -322 3 -588 1 -592 -3z m1162 -795 c189 -37 387 -148
501 -281 225 -261 277 -647 129 -956 -99 -208 -243 -343 -463 -433 -39 -16
-100 -36 -134 -44 -64 -15 -391 -30 -425 -20 -17 6 -18 40 -18 875 0 594 3
869 10 872 24 8 349 -3 400 -13z M8775 11829 c-481 -45 -866 -342 -1009 -780
-43 -132 -50 -187 -51 -359 0 -172 6 -214 52 -349 77 -230 241 -449 430 -574
135 -89 364 -187 439 -187 40 0 43 -8 46 -120 l3 -75 85 0 85 0 0 465 0 465
-55 8 c-118 16 -241 98 -292 194 -106 198 -24 425 190 526 63 30 73 32 182 32
99 0 126 -4 197 -28 115 -38 197 -79 273 -136 66 -49 182 -165 212 -211 l16
-25 39 21 c66 36 451 261 603 352 11 7 3 24 -45 88 -81 107 -90 118 -170 203
-315 332 -809 529 -1230 490z M10380 9936 c0 -1042 3 -1896 8 -1898 4 -2 172
-2 375 0 l367 2 0 695 c0 464 4 712 11 747 36 176 161 294 338 320 202 30 346
-67 417 -282 17 -51 19 -108 22 -767 2 -548 6 -713 15 -714 35 -1 722 2 723 4
1 1 4 326 6 722 3 747 3 751 -39 940 -73 328 -325 631 -639 771 -203 90 -512
113 -725 53 -41 -11 -86 -23 -101 -26 l-28 -5 0 666 0 666 -375 0 -375 0 0
-1894z M13925 10549 c-267 -48 -491 -163 -676 -349 -189 -190 -291 -376 -356
-650 -26 -109 -25 -403 1 -515 54 -227 129 -381 275 -557 135 -164 357 -318
558 -386 143 -49 198 -57 403 -57 171 1 206 4 284 24 293 76 549 243 717 466
111 148 194 326 240 515 21 85 19 424 -4 518 -37 154 -113 329 -199 454 -116
171 -292 327 -471 416 -200 100 -344 133 -570 131 -84 -1 -174 -5 -202 -10z
m299 -749 c127 -21 263 -110 332 -217 102 -160 112 -357 27 -527 -146 -291
-577 -358 -810 -127 -104 104 -144 197 -151 351 -5 120 11 183 73 288 100 171
318 267 529 232z M15594 9303 c0 -687 4 -1252 8 -1258 4 -6 135 -9 369 -7
l363 2 350 350 c193 193 353 350 356 350 3 0 163 -158 355 -350 l350 -350 370
2 370 3 3 1253 2 1252 -375 0 -375 0 0 -710 c0 -556 -3 -710 -12 -710 -7 0
-162 151 -345 335 -183 184 -337 335 -343 335 -6 0 -164 -154 -351 -342 -186
-188 -341 -339 -344 -336 -3 3 -6 315 -5 693 0 377 -3 698 -6 711 l-6 24 -368
0 -368 0 2 -1247z M2890 8800 l0 -760 661 -2 c579 -3 662 -1 669 12 4 8 11 49
14 90 25 264 174 627 361 875 143 191 381 399 570 500 39 20 72 39 74 41 2 2
-525 4 -1172 4 l-1177 0 0 -760z M5810 9540 c-286 -53 -519 -153 -720 -308
-304 -235 -492 -511 -595 -870 -48 -168 -59 -253 -59 -462 -1 -186 1 -205 46
-390 94 -392 352 -747 716 -988 274 -180 635 -271 994 -250 535 32 1046 354
1321 833 89 156 179 408 189 530 l3 40 -383 3 c-358 2 -383 1 -389 -15 -90
-262 -238 -437 -461 -548 -472 -233 -1040 -13 -1236 480 -53 132 -72 355 -42
495 54 252 236 493 471 620 116 62 226 92 366 97 180 8 299 -16 445 -90 181
-91 340 -261 419 -447 10 -25 23 -51 28 -57 7 -10 97 -13 387 -13 207 0 379 2
382 5 17 17 -81 323 -141 444 -52 102 -173 282 -248 368 -218 248 -598 464
-903 513 -41 6 -97 16 -123 21 -82 15 -361 9 -467 -11z"/>
  </g>
  <g transform="translate(0,2048) scale(0.1,-0.1)" fill="#EAA84E" stroke="none">
    <path d="M2934 13025 c-16 -5 -32 -14 -36 -20 -4 -5 -8 -728 -8 -1605 0 -877
4 -1600 8 -1606 4 -6 23 -14 42 -18 19 -5 753 -10 1630 -12 1779 -5 1760 -5
1760 -17 0 -5 9 -6 20 -2 10 3 33 -1 49 -9 17 -9 51 -16 76 -16 26 0 63 -9 85
-20 22 -11 68 -28 103 -36 34 -9 69 -22 78 -30 9 -8 43 -20 75 -26 34 -7 74
-23 94 -38 47 -36 75 -50 99 -50 11 0 29 -13 41 -30 12 -16 36 -33 55 -39 39
-10 145 -93 160 -123 5 -11 29 -29 53 -39 30 -13 46 -27 53 -48 6 -17 18 -33
27 -36 10 -3 35 -30 57 -61 21 -30 54 -68 72 -83 18 -16 33 -36 33 -45 0 -10
5 -14 11 -11 6 4 9 0 7 -11 -2 -12 5 -23 18 -28 13 -6 27 -26 33 -48 7 -20 21
-44 34 -53 12 -8 18 -15 14 -15 -13 0 31 -74 62 -104 17 -16 35 -44 41 -62 6
-18 20 -36 31 -39 10 -4 29 -27 42 -53 12 -26 27 -46 34 -45 6 1 17 -5 25 -15
12 -15 11 -16 -4 -3 -10 7 -18 9 -18 4 0 -5 11 -15 24 -21 34 -15 96 -72 93
-85 -1 -7 21 -23 50 -37 28 -14 62 -35 76 -47 13 -13 28 -23 34 -23 6 0 26
-16 44 -35 24 -25 39 -33 52 -29 14 4 17 3 12 -6 -5 -9 -2 -10 14 -5 15 5 21
2 21 -9 0 -24 59 -56 103 -56 20 0 37 -4 37 -8 0 -10 59 -32 86 -32 13 0 15
-3 6 -8 -8 -6 1 -13 30 -22 24 -7 57 -19 75 -26 17 -8 44 -14 60 -14 15 0 66
-7 113 -15 47 -8 108 -16 135 -17 59 -3 306 22 320 32 12 9 69 23 105 25 14 2
31 3 38 4 7 0 10 6 6 13 -5 7 -2 9 9 5 8 -3 25 3 38 14 12 10 28 19 34 19 7 0
18 7 25 15 7 9 19 14 26 11 14 -5 37 13 53 41 5 9 17 17 28 18 30 2 86 27 109
50 12 11 36 28 54 38 18 10 30 20 27 23 -8 9 25 45 50 55 12 4 31 26 42 47 11
21 26 44 35 51 17 15 56 86 56 104 0 7 14 23 30 35 28 21 44 52 19 36 -7 -4
-10 -3 -7 2 7 15 30 68 41 94 6 14 19 37 29 52 11 16 19 46 20 75 0 26 5 54
11 61 6 8 10 36 10 63 0 27 3 49 8 49 23 0 -9 327 -38 392 -11 24 -32 81 -48
128 -15 47 -35 96 -43 110 -47 77 -82 127 -101 144 -12 11 -21 30 -21 43 0 19
-10 28 -45 43 -25 11 -45 25 -45 31 0 7 -8 21 -17 32 -13 15 -14 18 -3 12 8
-4 5 3 -8 17 -12 13 -44 35 -70 48 -51 25 -92 54 -95 67 -1 4 -8 7 -14 5 -7
-2 -13 2 -13 8 0 5 -7 10 -15 10 -8 0 -23 4 -33 9 -32 16 -146 69 -207 96
-103 45 -108 49 -121 87 -8 24 -9 38 -2 40 14 5 16 73 1 73 -6 0 -15 3 -19 8
-4 4 -35 7 -69 7 -45 0 -66 -4 -76 -16 -10 -13 -14 -104 -16 -433 l-4 -416 26
-28 c29 -33 72 -52 137 -61 30 -5 53 -14 61 -27 8 -10 17 -17 20 -14 4 3 5 2
2 -1 -7 -11 15 -44 30 -44 21 0 51 -49 70 -115 25 -87 28 -130 17 -243 -10
-92 -14 -105 -43 -142 -47 -59 -115 -108 -160 -115 -21 -4 -37 -10 -35 -13 2
-4 -9 -8 -26 -8 -17 -1 -33 -6 -37 -12 -8 -13 -97 -13 -211 -1 -60 7 -104 19
-150 41 -36 17 -73 35 -82 40 -10 4 -25 8 -33 8 -9 0 -14 4 -11 9 3 5 -2 15
-11 22 -12 10 -14 10 -9 2 4 -7 2 -13 -3 -13 -6 0 -11 4 -11 9 0 5 -11 12 -24
15 -29 7 -92 64 -89 80 2 7 -13 28 -34 47 -20 18 -32 28 -28 20 5 -9 3 -12 -6
-9 -8 3 -14 11 -14 19 -1 8 -15 30 -33 49 -18 19 -39 55 -46 80 -9 31 -22 49
-42 61 -16 8 -31 24 -33 35 -2 10 -6 21 -10 24 -13 11 -67 87 -81 115 -8 17
-34 50 -58 74 -24 24 -41 49 -39 55 2 6 -9 19 -25 28 -18 12 -28 26 -28 42 0
25 -22 51 -33 39 -4 -3 -7 -1 -7 5 0 7 -6 12 -14 12 -14 0 -66 61 -66 79 0 5
-5 13 -12 17 -7 4 -8 3 -4 -4 11 -18 -1 -14 -31 11 -48 39 -83 79 -78 87 6 10
-7 20 -36 25 -24 5 -52 25 -44 33 9 9 -17 32 -36 32 -10 0 -44 23 -74 50 -30
28 -64 50 -75 50 -11 0 -20 5 -20 10 0 6 -7 10 -15 10 -8 0 -15 7 -15 16 0 14
-60 47 -87 47 -7 0 -13 4 -13 9 0 4 -11 8 -24 8 -13 0 -38 10 -57 23 -19 13
-55 32 -81 42 -25 11 -44 23 -42 27 5 8 -10 12 -35 9 -7 -2 -10 2 -6 8 4 7 -5
11 -24 11 -17 0 -31 4 -31 10 0 5 -19 14 -42 20 -24 6 -51 15 -60 20 -10 6
-25 10 -33 10 -8 0 -23 4 -33 9 -38 19 -70 29 -127 41 -113 22 -150 32 -161
41 -6 5 -74 18 -150 29 -132 20 -189 20 -1441 20 -857 -1 -1309 2 -1321 9 -32
17 -45 88 -37 206 5 71 3 121 -5 155 -10 42 -9 54 4 81 9 18 16 40 16 51 0 11
7 18 20 18 11 0 20 5 20 11 0 7 18 9 58 4 31 -4 347 -9 702 -11 513 -3 650 -2
670 9 40 20 51 74 51 242 0 83 -3 204 -5 270 -3 75 -2 103 3 75 l8 -45 1 60
c1 42 -1 55 -8 45 -8 -12 -10 -9 -10 11 0 14 -9 34 -21 45 -20 18 -48 19 -746
21 -759 1 -753 1 -753 45 0 12 -4 17 -12 12 -7 -5 -8 -3 -4 5 9 14 9 375 1
418 -4 22 -3 24 3 8 8 -18 10 -17 16 12 10 45 61 68 116 53 42 -11 1325 -15
1354 -4 8 3 23 18 32 32 15 23 18 59 22 240 3 132 1 217 -6 225 -5 7 -7 38 -4
72 6 55 7 57 13 25 6 -33 6 -33 8 13 0 30 -3 46 -9 42 -5 -3 -10 3 -10 14 0
10 -14 31 -32 46 l-32 27 -1066 -4 c-666 -2 -1077 -7 -1096 -13z"/>
  </g>
</svg>